PathFileType	4	(X/Y/Z)	Patient4_TMGait_0pt7_01_right_19.trc.trc
DataRate	CameraRate	NumFrames	NumMarkers	Units	OrigDataRate	OrigDataStartFrame	OrigNumFrames
84.848484848485	84.848484848485	4	33	mm	84.848484848485	1	       141
Frame#	Time	Sacral			L.Shoulder			Chest			R.Shoulder			Neck			R.ASIS			L.ASIS			R.Thigh.Superior			R.Thigh.Lateral			R.Thigh.Inferior			R.Patella			L.Thigh.Superior			L.Thigh.Lateral			L.Thigh.Inferior			L.Patella			L.Shank.Superior			L.Shank.Lateral			L.Shank.Inferior			R.Shank.Superior			R.Shank.Lateral			R.Shank.Inferior			R.Heel			R.Midfoot.Superior			R.Midfoot.Lateral			R.Toe			L.Heel			L.Midfoot.Lateral			L.Midfoot.Superior			L.Toe			L.Elbow			L.Wrist			R.Elbow			R.Wrist			
		X1	Y1	Z1	X2	Y2	Z2	X3	Y3	Z3	X4	Y4	Z4	X5	Y5	Z5	X6	Y6	Z6	X7	Y7	Z7	X8	Y8	Z8	X9	Y9	Z9	X10	Y10	Z10	X11	Y11	Z11	X12	Y12	Z12	X13	Y13	Z13	X14	Y14	Z14	X15	Y15	Z15	X16	Y16	Z16	X17	Y17	Z17	X18	Y18	Z18	X19	Y19	Z19	X20	Y20	Z20	X21	Y21	Z21	X22	Y22	Z22	X23	Y23	Z23	X24	Y24	Z24	X25	Y25	Z25	X26	Y26	Z26	X27	Y27	Z27	X28	Y28	Z28	X29	Y29	Z29	X30	Y30	Z30	X31	Y31	Z31	X32	Y32	Z32	X33	Y33	Z33	

1	21.230000000000	824.011728705993	1004.377544600347	445.507746772041	999.008889695002	1439.275015845001	274.909977177871	1107.063551441219	1363.271366643465	430.606907500012	1028.627385437265	1434.586798770111	609.036446334969	1007.040512808033	1494.188739881648	431.702289908317	1051.408353497794	940.025815004203	556.634790193790	1037.187162839400	963.693956989578	284.582033418499	1131.083480996648	766.952083949608	533.243198869843	1087.494405861284	648.277849091507	608.267822348610	1177.224371420873	605.392781130584	530.021296454008	1190.630230048434	489.440785877393	553.973730250564	1090.353615610676	752.377174444640	314.084456470013	1000.416070383772	634.747590607811	259.549145490976	1084.409181265423	557.055416074931	323.436077650847	1084.773388413620	486.509500594909	335.463477916515	1053.206062999756	414.400497549827	327.899751335909	958.330410872429	304.539851853383	277.965540285356	1000.389572443268	191.431136507836	350.583470882353	1105.029481257340	422.314978841631	563.102350952857	977.086474480528	402.247463363465	620.466162497772	950.699509260877	293.366444656747	576.769666572118	749.477913203079	268.459055282249	542.371248915562	896.412173920030	170.832733003853	591.966845247956	787.938924602421	197.104370876523	619.271921179723	928.370985038619	44.906170322466	622.202420851078	864.608989625080	39.034332493827	390.728044247448	938.144988279291	36.117014234564	309.889522259859	1021.894359002236	96.202008188410	337.223969238876	1150.163382090138	41.184449856762	306.766509890064	978.960842690803	1098.940382884175	130.070602921798	1110.556849946882	873.565717221825	161.905241561762	996.287256256821	1084.753601302130	713.610239158958	1228.457251859338	979.751101580746	670.531246869709	
2	21.241785714286	822.861232556273	1004.704998169033	444.156675143917	1001.002146344006	1439.501325824110	274.304176980276	1106.801290442313	1363.488712669436	431.394835104295	1026.266722341992	1435.043805701477	608.770323056640	1006.901401586099	1494.478281178162	431.102005933693	1050.078966594865	941.495110089854	557.638831737727	1037.755342066510	964.299387008971	284.676925501255	1132.492215368832	772.137052259106	533.123824502466	1092.628261108926	652.368292742046	608.181548493505	1183.237916439539	611.984361856354	529.726593632214	1200.251453012481	496.690266897611	553.552127047619	1087.697428442404	751.182808169923	314.682785741115	996.367442264090	634.770673868199	259.423580555372	1078.758519717809	556.026760392524	323.810158224221	1078.074160921524	485.632376999690	335.888435923318	1046.377280889808	413.784860490946	328.088088146233	951.082291719285	304.485329174781	277.855761414627	992.224328732791	191.176745492263	350.640418836740	1116.959354861814	426.937216068519	562.706076056179	990.010508515459	401.937573344624	619.807267001849	967.978412751577	292.261922958340	576.032229436834	767.973286795674	258.549107373201	541.178525636766	918.746566339863	168.261993520592	591.058939533467	809.519385635274	189.565322471192	618.339492280466	956.850528248800	44.705911521972	621.910455908824	855.792090392079	39.062516668887	390.644588297524	929.417278054948	36.122085044794	309.818250857985	1013.176054547433	96.169718204135	337.161949761811	1141.435300365743	41.095384081381	306.708983975575	988.205449503731	1100.496467311755	127.069729385021	1130.120315064854	883.087381506308	161.195052998659	988.135291244565	1085.351841849061	712.645859006260	1205.550815591835	957.251261063281	676.041923330758	
3	21.253571428571	821.724255863761	1005.025525845155	442.825737308278	1002.995521064840	1439.728511590203	273.730061847311	1106.554702255701	1363.693455242185	432.190539983774	1023.953060223479	1435.476127367680	608.516678690224	1006.778751457138	1494.765095904076	430.523207526639	1048.718693892206	942.910263082783	558.630964014260	1038.275183253616	964.842377678570	284.836947518541	1133.838003324485	777.246680176383	533.045053725820	1097.629106377632	656.406120736270	608.113391949335	1189.077112927863	618.467453006235	529.464474473317	1209.601612098740	503.860825326916	553.188812679694	1085.061701650024	750.005909752575	315.342366261928	992.386553575424	634.793413135774	259.313841695423	1073.171343174817	555.013780723599	324.211747429397	1071.447731933530	484.771048518886	336.321989191800	1039.626698285873	413.185328350758	328.283073624678	943.922882323596	304.433423385539	277.752294919923	984.158869392955	190.927843175180	350.699626689811	1128.690095284726	431.477118132633	562.348808074860	1002.825916273057	401.448037211594	619.229299757991	985.194480356036	291.012891774788	575.357030152704	786.470254993563	248.440847515469	540.155049796883	941.095334712210	165.534067146544	590.188853353002	831.159913612302	181.815122449586	617.508698700424	985.367783635980	44.375653754750	621.566070704163	847.085070892050	39.095408999995	390.557056325038	920.792387642417	36.126863529249	309.749900702589	1004.563978978312	96.140427127754	337.101857535621	1132.811879062713	41.007412221099	306.651705491231	997.278527889842	1102.065994975775	124.163541018387	1149.441296414846	892.749950937708	160.644226897506	980.233077236660	1085.905572288334	711.788738901833	1182.520559777016	935.325959387790	681.526837828704	
4	21.265357142857	820.627386202112	1005.324275842560	441.551623518689	1004.992308874705	1439.950996265010	273.234128220481	1106.347236979179	1363.862625684083	433.013091339742	1021.743866010718	1435.849628676358	608.302287582737	1006.699805340440	1495.036078545649	430.005778208986	1047.318429708888	944.215995979568	559.607910356196	1038.731850796403	965.277724893827	285.107555741661	1135.046852553057	782.154055654569	533.052662311416	1102.316417888809	660.288669402541	608.096127588793	1194.518404413569	624.670684853002	529.281414137348	1218.372502403300	510.842119255612	552.938884623296	1082.438504949782	748.845820747034	316.113293236749	988.486534535732	634.814221895962	259.235499140101	1067.644160098488	554.021336439432	324.662098198313	1064.890969864831	483.935650621737	336.770301545680	1032.956323291067	412.613024049227	328.490813465589	936.861518046105	304.387149902576	277.662880043595	976.214090272232	190.689561753623	350.763918162176	1140.028277487618	435.840966100913	562.077038565995	1015.516515222987	400.571099651901	618.843514668018	1002.425099302217	289.483415165833	574.824742411448	805.249111287716	237.857275756779	539.496529844189	963.693645022596	162.558994634268	589.425300931341	853.203020266723	173.645172138139	616.907728226533	1014.211122816350	43.955420541353	621.144249046637	838.516050893705	39.138052962625	390.465047315488	912.291566364544	36.132406650886	309.688191984562	996.083152833242	96.116589710418	337.046463759034	1124.315071150405	40.921574994258	306.595837146523	1006.073653774633	1103.672464727444	121.446738774654	1168.349094819705	902.801378013863	160.405434739521	972.695755745702	1086.410797995085	711.132162893311	1159.121648197960	914.589186867741	686.955493796083	
